<svg version="1.2" xmlns="http://www.w3.org/2000/svg" viewBox="0 0 424 2304" width="424" height="2304">
	<title>wave-svg</title>
	<defs>
		<linearGradient id="g1" x1="-18.3" y1="2308" x2="-18.3" y2="-1148.3" gradientUnits="userSpaceOnUse">
			<stop offset="0" stop-color="#2598ca"/>
			<stop offset="1" stop-color="#26ebfd"/>
		</linearGradient>
	</defs>
	<style>
		.s0 { fill: url(#g1) } 
	</style>
	<path id="Layer" class="s0" d="m320.6-1148l-8 24c-8 24-24.1 72-0.1 120 24 48 87.9 96.1 55.9 144.1-32.1 47.9-160.1 95.8-232.1 143.8-72.1 47.9-88.1 95.9-64.2 143.9 24 48 88 96.1 127.9 144.1 40 48.1 55.9 96.1 71.9 144.1 16 48 31.9 96-8.1 144-40.1 47.9-136.1 95.9-168.1 143.8-32.1 48-0.1 96 23.8 144.1 24 48 40 96 55.9 144 16 48 31.9 96 7.9 144-24 48-88.1 95.9-72.1 144 15.9 48 111.9 96 143.9 144.1 31.9 48-0.1 96-16.2 144-16 47.9-16 95.9 7.9 144 24 48 71.9 96 39.9 144-32 48-144.1 95.9-136.1 143.9 7.9 48 135.9 96.1 199.9 144.2 63.9 48 63.9 96 55.8 144-8 48-24 96-24.1 144 0 48 15.9 96-40.1 143.9-56 48-184.1 95.9-248.1 143.8-64.1 48-64.1 96-16.1 144 47.9 48.1 143.9 96.1 191.9 120.2l47.9 24-336-0.3 0.1-24c0-24 0-72 0.1-120q0-72 0.1-144 0-72 0.1-144 0.1-72 0.1-144 0.1-72 0.1-144 0.1-72 0.2-144 0-72 0.1-144 0-72 0.1-144 0.1-72 0.1-144 0.1-72 0.1-144 0.1-72 0.2-144 0-72 0.1-144 0-72 0.1-144 0.1-72 0.1-144 0.1-72 0.1-144 0.1-72 0.2-144 0-72 0.1-144 0-72 0.1-144 0.1-72 0.1-144 0.1-72 0.1-144 0.1-72 0.2-144 0-72 0.1-144 0-72 0.1-144c0-48 0.1-96 0.1-120v-24z"/>
</svg>